<?xml version="1.0" encoding="UTF-8"?>
<!DOCTYPE svg PUBLIC "-//W3C//DTD SVG 1.1//EN" "http://www.w3.org/Graphics/SVG/1.1/DTD/svg11.dtd">
<svg xmlns="http://www.w3.org/2000/svg" version="1.1" width="462px" height="173px" style="shape-rendering:geometricPrecision; text-rendering:geometricPrecision; image-rendering:optimizeQuality; fill-rule:evenodd; clip-rule:evenodd" xmlns:xlink="http://www.w3.org/1999/xlink">
<g><path style="opacity:1" fill="#0cc916" d="M 51.5,25.5 C 77.3509,26.5343 103.684,26.7009 130.5,26C 142.381,28.2151 150.214,35.0485 154,46.5C 154.667,75.5 154.667,104.5 154,133.5C 150.396,144.105 143.229,150.938 132.5,154C 104.5,154.667 76.5,154.667 48.5,154C 37.7708,150.938 30.6041,144.105 27,133.5C 26.3333,104.833 26.3333,76.1667 27,47.5C 30.6503,35.0109 38.8169,27.6776 51.5,25.5 Z M 81.5,34.5 C 114.295,32.7863 135.462,47.4529 145,78.5C 149.215,104.88 140.048,125.047 117.5,139C 91.4001,150.513 68.2334,146.347 48,126.5C 32.4874,105.57 30.8207,83.5702 43,60.5C 52.5344,46.7746 65.3677,38.1079 81.5,34.5 Z M 89.5,50.5 C 88.5352,54.1075 86.2019,55.7742 82.5,55.5C 80.882,54.5489 79.5487,53.2156 78.5,51.5C 82.1073,50.5108 85.774,50.1774 89.5,50.5 Z M 92.5,61.5 C 91.2223,61.2178 90.2223,60.5511 89.5,59.5C 89.5,59.1667 89.5,58.8333 89.5,58.5C 90.3909,56.3911 91.5576,54.3911 93,52.5C 93.6377,53.6086 94.1377,54.7753 94.5,56C 93.6805,57.8003 93.0138,59.6336 92.5,61.5 Z M 114.5,55.5 C 116.05,54.2801 117.716,54.2801 119.5,55.5C 118.001,56.494 116.334,56.494 114.5,55.5 Z M 79.5,59.5 C 80.1667,59.5 80.8333,59.5 81.5,59.5C 81.9528,60.4584 82.6195,61.2917 83.5,62C 81.0551,62.9098 79.7218,62.0764 79.5,59.5 Z M 68.5,52.5 C 70.1849,51.156 71.8516,51.3227 73.5,53C 71.8034,53.3845 70.1368,53.2178 68.5,52.5 Z M 72.5,71.5 C 71.0337,72.347 70.2004,73.6803 70,75.5C 66.733,72.6305 67.233,70.2971 71.5,68.5C 66.1936,64.8743 67.027,62.8743 74,62.5C 75.9674,62.5419 77.8008,63.0419 79.5,64C 75.9212,65.4098 73.5878,67.9098 72.5,71.5 Z M 85.5,76.5 C 82.5,76.5 79.5,76.5 76.5,76.5C 76.4643,70.5554 79.2977,66.8887 85,65.5C 86.8195,69.059 86.9861,72.7256 85.5,76.5 Z M 113.5,69.5 C 110.734,65.9572 111.401,62.9572 115.5,60.5C 116.5,60.8333 117.167,61.5 117.5,62.5C 115.384,64.3999 114.051,66.7332 113.5,69.5 Z M 121.5,60.5 C 122.386,59.2241 123.386,59.2241 124.5,60.5C 123.575,61.5624 122.575,61.5624 121.5,60.5 Z M 130.5,75.5 C 125.305,76.4781 119.972,76.9781 114.5,77C 119.6,74.267 124.933,73.767 130.5,75.5 Z M 52.5,75.5 C 55.2372,75.4013 57.9039,75.7347 60.5,76.5C 58.2104,81.3931 54.8771,82.5598 50.5,80C 49.1235,82.5402 49.7902,84.5402 52.5,86C 50.1667,87.5 47.8333,89 45.5,90.5C 44.2801,90.1131 43.6135,89.2798 43.5,88C 45.3134,84.6926 47.3134,81.526 49.5,78.5C 50.8333,77.8333 51.8333,76.8333 52.5,75.5 Z M 59.5,90.5 C 58.5,89.8333 57.5,89.1667 56.5,88.5C 56.0825,87.7784 55.4158,87.2784 54.5,87C 61.3766,82.2238 68.71,81.3905 76.5,84.5C 74.8058,86.844 72.4725,87.844 69.5,87.5C 66.6776,87.4479 64.011,86.7813 61.5,85.5C 59.0428,87.0009 59.0428,88.6676 61.5,90.5C 61.0302,91.463 60.3635,91.463 59.5,90.5 Z M 128.5,94.5 C 127.991,91.8078 126.991,89.3078 125.5,87C 127.112,86.2797 128.612,86.4464 130,87.5C 130.667,89.5 130.667,91.5 130,93.5C 129.617,94.056 129.117,94.3893 128.5,94.5 Z M 80.5,94.5 C 75.7849,96.3882 73.1182,99.8882 72.5,105C 73.2454,109.394 74.2454,113.727 75.5,118C 74.8994,120.637 73.2327,121.804 70.5,121.5C 69.205,120.512 67.8717,119.512 66.5,118.5C 66.573,116.973 65.9063,115.973 64.5,115.5C 64.573,113.973 63.9063,112.973 62.5,112.5C 61.8505,110.565 61.5172,108.565 61.5,106.5C 63.7857,106.405 65.7857,105.738 67.5,104.5C 70.8618,102.118 71.1951,99.451 68.5,96.5C 71.1667,94.8333 73.8333,93.1667 76.5,91.5C 78.0269,91.573 79.0269,90.9063 79.5,89.5C 81.1172,88.962 82.7839,88.6287 84.5,88.5C 83.797,90.8726 82.4637,92.8726 80.5,94.5 Z M 112.5,89.5 C 113.5,89.5 114.5,89.5 115.5,89.5C 115.973,90.9063 116.973,91.573 118.5,91.5C 118.833,92.5 119.5,93.1667 120.5,93.5C 120.218,94.7777 119.551,95.7777 118.5,96.5C 115.813,96.3359 113.146,96.5026 110.5,97C 109.359,99.2237 110.026,100.724 112.5,101.5C 115.405,102.628 118.072,104.295 120.5,106.5C 121.865,105.193 123.198,105.193 124.5,106.5C 125.244,109.95 123.91,111.616 120.5,111.5C 120.33,112.822 120.663,113.989 121.5,115C 119.041,115.239 116.707,114.739 114.5,113.5C 113.738,111.738 112.404,110.738 110.5,110.5C 109.833,107.833 108.167,106.167 105.5,105.5C 103.901,103.691 101.901,102.358 99.5,101.5C 100.193,100.482 100.859,99.4822 101.5,98.5C 103.5,97.1667 105.167,95.5 106.5,93.5C 107.5,93.1667 108.167,92.5 108.5,91.5C 110.153,91.3404 111.486,90.6737 112.5,89.5 Z M 58.5,108.5 C 55.5905,106.004 52.4239,106.004 49,108.5C 45.3259,104.194 46.1592,101.194 51.5,99.5C 52.3382,99.1583 52.6716,98.4916 52.5,97.5C 54.7375,96.4634 57.0709,96.2967 59.5,97C 58.7069,98.0852 58.0402,99.2519 57.5,100.5C 59.4424,103.148 59.7757,105.815 58.5,108.5 Z M 121.5,102.5 C 120.711,102.217 120.044,101.717 119.5,101C 120.816,100.472 121.483,100.972 121.5,102.5 Z M 108.5,115.5 C 109.871,117.459 110.871,119.625 111.5,122C 110.906,122.464 110.239,122.631 109.5,122.5C 108.974,120.77 107.974,119.436 106.5,118.5C 105.085,116.656 103.419,115.989 101.5,116.5C 103.743,115.526 106.076,115.192 108.5,115.5 Z M 115.5,120.5 C 116.5,120.5 117.5,120.5 118.5,120.5C 123.616,123.177 122.949,124.844 116.5,125.5C 116.371,123.784 116.038,122.117 115.5,120.5 Z M 108.5,127.5 C 108.511,129.017 109.177,130.184 110.5,131C 109.473,131.513 108.473,132.013 107.5,132.5C 106.596,131.791 106.263,130.791 106.5,129.5C 106.131,127.007 106.797,126.34 108.5,127.5 Z M 91.5,134.5 C 92.6878,136.496 92.0211,137.329 89.5,137C 90.3805,136.292 91.0472,135.458 91.5,134.5 Z"/></g>
<g><path style="opacity:0.08" fill="#4ea388" d="M 103.5,44.5 C 102.5,44.5 101.5,44.5 100.5,44.5C 101.542,51.2472 99.5418,52.2472 94.5,47.5C 95.9305,47.4208 97.2638,47.7542 98.5,48.5C 99.7112,47.7261 99.7112,46.8928 98.5,46C 94.6192,44.8099 90.6192,44.1432 86.5,44C 85.1667,43.3333 85.1667,42.6667 86.5,42C 92.716,39.6257 98.3827,40.459 103.5,44.5 Z"/></g>
<g><path style="opacity:0.012" fill="#3f977c" d="M 103.5,44.5 C 105.5,44.5 106.5,45.5 106.5,47.5C 105.167,46.8333 104.167,45.8333 103.5,44.5 Z"/></g>
<g><path style="opacity:1" fill="#13ca1a" d="M 94.5,47.5 C 99.5418,52.2472 101.542,51.2472 100.5,44.5C 101.5,44.5 102.5,44.5 103.5,44.5C 104.167,45.8333 105.167,46.8333 106.5,47.5C 106.5,50.1667 106.5,52.8333 106.5,55.5C 105.094,55.9731 104.427,56.9731 104.5,58.5C 103.737,60.3684 102.737,62.0351 101.5,63.5C 99.7045,66.3619 98.3711,69.5286 97.5,73C 98.2961,74.0921 98.9628,75.2588 99.5,76.5C 98.6911,77.9856 98.6911,79.3189 99.5,80.5C 101.753,79.7469 103.587,78.4136 105,76.5C 105.499,72.5138 105.666,68.5138 105.5,64.5C 107.245,62.9674 108.245,60.9674 108.5,58.5C 110.28,57.0101 110.946,55.0101 110.5,52.5C 112.985,48.3502 116.318,47.6836 120.5,50.5C 120.371,52.2161 120.038,53.8828 119.5,55.5C 117.716,54.2801 116.05,54.2801 114.5,55.5C 114.062,55.4346 113.728,55.6012 113.5,56C 114.759,56.9234 116.092,57.7568 117.5,58.5C 110.417,60.2535 108.75,64.2535 112.5,70.5C 113.107,70.3764 113.44,70.0431 113.5,69.5C 115.033,67.6452 116.7,65.8119 118.5,64C 122.833,63.3333 127.167,63.3333 131.5,64C 133.037,65.1096 133.703,66.6096 133.5,68.5C 129.204,67.5375 124.871,67.3708 120.5,68C 119.117,69.4609 119.451,70.2942 121.5,70.5C 121.5,71.5 121.5,72.5 121.5,73.5C 118.575,73.4598 115.909,74.2932 113.5,76C 111.671,77.1133 110.837,78.6133 111,80.5C 118.71,78.2377 126.543,77.9043 134.5,79.5C 135.167,79.5 135.5,79.8333 135.5,80.5C 135.833,81.5 136.5,82.1667 137.5,82.5C 137.374,84.1998 136.707,85.6998 135.5,87C 136.079,90.0881 137.413,92.7548 139.5,95C 139.167,95.5 138.833,96 138.5,96.5C 135.785,95.8767 133.118,95.5434 130.5,95.5C 132.908,92.3751 132.908,89.2084 130.5,86C 124.219,83.672 122.719,85.172 126,90.5C 126.497,92.8098 126.663,95.1432 126.5,97.5C 128.604,97.2011 130.604,97.5344 132.5,98.5C 130.853,100.488 131.186,101.821 133.5,102.5C 137.354,102.883 138.687,104.883 137.5,108.5C 137.167,108.833 136.833,109.167 136.5,109.5C 134.68,108.117 132.68,107.117 130.5,106.5C 129.542,106.047 128.708,105.381 128,104.5C 127.598,105.872 127.098,107.205 126.5,108.5C 127.325,109.386 128.325,109.719 129.5,109.5C 128.527,111.068 128.36,112.735 129,114.5C 129.383,113.944 129.883,113.611 130.5,113.5C 130.5,115.167 130.5,116.833 130.5,118.5C 129.486,119.674 128.153,120.34 126.5,120.5C 123.833,120.5 121.167,120.5 118.5,120.5C 117.5,120.5 116.5,120.5 115.5,120.5C 113.381,118.6 111.047,116.934 108.5,115.5C 105.77,114.183 102.937,114.183 100,115.5C 99.6848,116.908 100.018,118.241 101,119.5C 102.699,118.594 104.533,118.261 106.5,118.5C 107.974,119.436 108.974,120.77 109.5,122.5C 113.242,125.283 117.242,127.283 121.5,128.5C 119.056,131.456 116.056,132.123 112.5,130.5C 111.167,129.5 109.833,128.5 108.5,127.5C 108.179,125.952 107.179,125.285 105.5,125.5C 105.232,127.099 105.566,128.432 106.5,129.5C 106.263,130.791 106.596,131.791 107.5,132.5C 107.912,134.973 106.912,136.306 104.5,136.5C 103.599,135.71 102.932,134.71 102.5,133.5C 102.737,132.209 102.404,131.209 101.5,130.5C 100.833,130.5 100.5,130.167 100.5,129.5C 100.013,128.527 99.5133,127.527 99,126.5C 98.4978,129.513 97.9978,132.513 97.5,135.5C 96.5,135.5 95.5,135.5 94.5,135.5C 94.0482,131.837 93.5482,128.17 93,124.5C 92.2971,129.738 90.1304,134.238 86.5,138C 83.3117,139.316 79.9783,139.816 76.5,139.5C 76.281,138.325 76.6143,137.325 77.5,136.5C 79.261,135.965 80.5943,134.965 81.5,133.5C 83.8089,132.612 85.4756,130.946 86.5,128.5C 86.1667,128.167 85.8333,127.833 85.5,127.5C 82.7204,129.706 79.5538,131.039 76,131.5C 73.3549,129.761 70.5215,128.427 67.5,127.5C 63.8962,129.03 60.5629,128.697 57.5,126.5C 57.2672,122.332 56.7672,117.999 56,113.5C 53.6194,112.565 51.1194,112.232 48.5,112.5C 48.5,111.5 48.5,110.5 48.5,109.5C 50.6746,109.318 52.6746,108.651 54.5,107.5C 55.8492,107.846 57.1825,108.179 58.5,108.5C 59.5,110.167 60.8333,111.5 62.5,112.5C 62.427,114.027 63.0937,115.027 64.5,115.5C 64.427,117.027 65.0937,118.027 66.5,118.5C 67.8717,119.512 69.205,120.512 70.5,121.5C 72.5463,122.965 74.3796,122.632 76,120.5C 74.8879,113.914 74.5545,107.248 75,100.5C 77.0396,98.6298 78.8729,96.6298 80.5,94.5C 84.9914,93.7759 86.658,91.1093 85.5,86.5C 82.911,86.461 80.911,87.461 79.5,89.5C 79.0269,90.9063 78.0269,91.573 76.5,91.5C 72.8204,92.5596 69.1537,93.7262 65.5,95C 66.2438,96.0386 67.2438,96.5386 68.5,96.5C 71.1951,99.451 70.8618,102.118 67.5,104.5C 66.1667,104.5 64.8333,104.5 63.5,104.5C 63.5871,101.261 62.9205,98.2613 61.5,95.5C 57.9878,94.9455 54.9878,95.6122 52.5,97.5C 52.6716,98.4916 52.3382,99.1583 51.5,99.5C 49.9102,99.3718 48.5769,98.7051 47.5,97.5C 48.8069,96.135 48.8069,94.8016 47.5,93.5C 49.7638,92.7814 52.0971,92.448 54.5,92.5C 54.5,91.1667 54.5,89.8333 54.5,88.5C 55.1667,88.5 55.8333,88.5 56.5,88.5C 57.5,89.1667 58.5,89.8333 59.5,90.5C 59.4701,91.4972 59.9701,92.1639 61,92.5C 66.215,90.8095 71.3817,88.9761 76.5,87C 77.3567,86.3109 78.0233,85.4776 78.5,84.5C 76.9412,82.8693 74.9412,82.036 72.5,82C 68.8484,81.5014 65.1817,81.3347 61.5,81.5C 60.6618,81.1583 60.3284,80.4916 60.5,79.5C 61.625,78.3478 61.625,77.3478 60.5,76.5C 58.1177,73.1382 55.451,72.8049 52.5,75.5C 51.8333,76.8333 50.8333,77.8333 49.5,78.5C 47.8212,78.7148 46.8212,78.0481 46.5,76.5C 47.1667,73.8333 48.8333,72.1667 51.5,71.5C 52.9778,71.762 54.3112,71.4287 55.5,70.5C 54.6072,67.9159 54.2739,65.2492 54.5,62.5C 56.1439,62.2865 57.6439,62.6198 59,63.5C 59.1705,65.7148 59.8372,67.7148 61,69.5C 61.4828,68.552 61.6495,67.552 61.5,66.5C 62.3745,64.31 64.0411,63.31 66.5,63.5C 67.6519,67.1645 67.8185,70.8312 67,74.5C 68.1096,76.0368 69.6096,76.7035 71.5,76.5C 71.6287,74.7839 71.962,73.1172 72.5,71.5C 73.5,71.5 74.5,71.5 75.5,71.5C 75.5,73.5 75.5,75.5 75.5,77.5C 78.2492,77.2739 80.9159,77.6072 83.5,78.5C 84.5223,78.1445 85.189,77.4778 85.5,76.5C 87.1852,75.8163 88.1852,74.483 88.5,72.5C 87.9664,68.6297 86.7997,64.963 85,61.5C 84.1841,60.1772 83.0174,59.5106 81.5,59.5C 80.8333,59.5 80.1667,59.5 79.5,59.5C 77.7857,58.2616 75.7857,57.595 73.5,57.5C 73.6261,55.8002 74.2927,54.3002 75.5,53C 73.4052,50.5486 72.4052,47.7153 72.5,44.5C 73.1499,44.1961 73.8165,43.8627 74.5,43.5C 76.2199,44.934 78.2199,45.7674 80.5,46C 85.3514,46.1745 90.0181,46.6745 94.5,47.5 Z M 89.5,50.5 C 88.5352,54.1075 86.2019,55.7742 82.5,55.5C 80.882,54.5489 79.5487,53.2156 78.5,51.5C 82.1073,50.5108 85.774,50.1774 89.5,50.5 Z M 92.5,61.5 C 91.2223,61.2178 90.2223,60.5511 89.5,59.5C 89.5,59.1667 89.5,58.8333 89.5,58.5C 90.3909,56.3911 91.5576,54.3911 93,52.5C 93.6377,53.6086 94.1377,54.7753 94.5,56C 93.6805,57.8003 93.0138,59.6336 92.5,61.5 Z M 72.5,71.5 C 73.5878,67.9098 75.9212,65.4098 79.5,64C 77.8008,63.0419 75.9674,62.5419 74,62.5C 67.027,62.8743 66.1936,64.8743 71.5,68.5C 67.233,70.2971 66.733,72.6305 70,75.5C 70.2004,73.6803 71.0337,72.347 72.5,71.5 Z M 85.5,76.5 C 86.9861,72.7256 86.8195,69.059 85,65.5C 79.2977,66.8887 76.4643,70.5554 76.5,76.5C 79.5,76.5 82.5,76.5 85.5,76.5 Z M 128.5,94.5 C 129.117,94.3893 129.617,94.056 130,93.5C 130.667,91.5 130.667,89.5 130,87.5C 128.612,86.4464 127.112,86.2797 125.5,87C 126.991,89.3078 127.991,91.8078 128.5,94.5 Z M 112.5,89.5 C 113.5,89.5 114.5,89.5 115.5,89.5C 115.973,90.9063 116.973,91.573 118.5,91.5C 118.833,92.5 119.5,93.1667 120.5,93.5C 120.218,94.7777 119.551,95.7777 118.5,96.5C 115.813,96.3359 113.146,96.5026 110.5,97C 109.359,99.2237 110.026,100.724 112.5,101.5C 115.405,102.628 118.072,104.295 120.5,106.5C 121.865,105.193 123.198,105.193 124.5,106.5C 125.244,109.95 123.91,111.616 120.5,111.5C 120.33,112.822 120.663,113.989 121.5,115C 119.041,115.239 116.707,114.739 114.5,113.5C 113.738,111.738 112.404,110.738 110.5,110.5C 109.833,107.833 108.167,106.167 105.5,105.5C 103.901,103.691 101.901,102.358 99.5,101.5C 100.193,100.482 100.859,99.4822 101.5,98.5C 103.5,97.1667 105.167,95.5 106.5,93.5C 107.5,93.1667 108.167,92.5 108.5,91.5C 110.153,91.3404 111.486,90.6737 112.5,89.5 Z M 121.5,102.5 C 121.483,100.972 120.816,100.472 119.5,101C 120.044,101.717 120.711,102.217 121.5,102.5 Z"/></g>
<g><path style="opacity:0.451" fill="#54a189" d="M 106.5,47.5 C 108.972,50.1191 108.972,52.7857 106.5,55.5C 106.5,52.8333 106.5,50.1667 106.5,47.5 Z"/></g>
<g><path style="opacity:0.266" fill="#54a68b" d="M 343.5,46.5 C 347.007,45.9935 350.174,46.6602 353,48.5C 353.333,67.1667 353.667,85.8333 354,104.5C 355.6,105.866 357.433,106.866 359.5,107.5C 361.381,112.071 359.881,114.737 355,115.5C 349.559,114.73 345.892,111.73 344,106.5C 343.727,89.4913 343.227,72.4913 342.5,55.5C 342.598,52.4492 342.931,49.4492 343.5,46.5 Z"/></g>
<g><path style="opacity:1" fill="#1ccf20" d="M 344.5,48.5 C 346.833,48.5 349.167,48.5 351.5,48.5C 351.333,67.1696 351.5,85.8363 352,104.5C 353.319,106.487 355.152,107.654 357.5,108C 359.353,111.447 358.353,113.28 354.5,113.5C 348.8,112.633 345.634,109.299 345,103.5C 344.5,85.1697 344.333,66.8364 344.5,48.5 Z"/></g>
<g><path style="opacity:0.549" fill="#56a68d" d="M 89.5,50.5 C 94.9885,50.504 96.8219,53.1707 95,58.5C 94.6232,59.9423 93.7899,60.9423 92.5,61.5C 93.0138,59.6336 93.6805,57.8003 94.5,56C 94.1377,54.7753 93.6377,53.6086 93,52.5C 91.5576,54.3911 90.3909,56.3911 89.5,58.5C 86.7939,58.1128 84.4605,57.1128 82.5,55.5C 86.2019,55.7742 88.5352,54.1075 89.5,50.5 Z"/></g>
<g><path style="opacity:0.439" fill="#549f88" d="M 110.5,52.5 C 110.946,55.0101 110.28,57.0101 108.5,58.5C 108.259,56.1016 108.926,54.1016 110.5,52.5 Z"/></g>
<g><path style="opacity:0.063" fill="#3c9a72" d="M 106.5,55.5 C 106.573,57.0269 105.906,58.0269 104.5,58.5C 104.427,56.9731 105.094,55.9731 106.5,55.5 Z"/></g>
<g><path style="opacity:0.09" fill="#53a88e" d="M 366.5,47.5 C 373.776,47.6386 376.276,51.3053 374,58.5C 367.961,63.0653 363.795,61.7319 361.5,54.5C 362.014,51.3227 363.681,48.9894 366.5,47.5 Z"/></g>
<g><path style="opacity:1" fill="#16ce1b" d="M 365.5,49.5 C 373.49,49.0859 375.49,52.2525 371.5,59C 363.424,59.8047 361.424,56.638 365.5,49.5 Z"/></g>
<g><path style="opacity:1" fill="#1acb23" d="M 259.5,57.5 C 260.833,57.5 262.167,57.5 263.5,57.5C 263.5,60.8333 263.5,64.1667 263.5,67.5C 269.176,67.3339 274.843,67.5006 280.5,68C 281.423,70.0408 281.756,72.2075 281.5,74.5C 275.5,74.5 269.5,74.5 263.5,74.5C 263.173,83.6822 263.507,92.6822 264.5,101.5C 264.157,103.483 264.824,104.817 266.5,105.5C 267.492,105.328 268.158,105.662 268.5,106.5C 271.64,107.641 274.973,107.808 278.5,107C 279.056,106.617 279.389,106.117 279.5,105.5C 280.833,104.167 282.167,104.167 283.5,105.5C 284.067,107.969 284.067,110.302 283.5,112.5C 283.158,113.338 282.492,113.672 281.5,113.5C 275.492,114.774 269.492,114.774 263.5,113.5C 262.508,113.672 261.842,113.338 261.5,112.5C 260.5,110.833 259.167,109.5 257.5,108.5C 256.662,108.158 256.328,107.492 256.5,106.5C 255.625,95.8602 255.291,85.1936 255.5,74.5C 253.097,74.552 250.764,74.2186 248.5,73.5C 247.402,72.3991 247.235,71.0657 248,69.5C 248.671,68.7476 249.504,68.4142 250.5,68.5C 252.027,68.573 253.027,67.9063 253.5,66.5C 254.906,66.0269 255.573,65.0269 255.5,63.5C 256.906,63.0269 257.573,62.0269 257.5,60.5C 258.906,60.0269 259.573,59.0269 259.5,57.5 Z"/></g>
<g><path style="opacity:0.173" fill="#41a079" d="M 259.5,57.5 C 259.573,59.0269 258.906,60.0269 257.5,60.5C 257.427,58.9731 258.094,57.9731 259.5,57.5 Z"/></g>
<g><path style="opacity:0.022" fill="#45a180" d="M 236.5,47.5 C 242.656,47.4871 245.49,50.4871 245,56.5C 243.287,61.038 240.12,62.538 235.5,61C 229.954,56.0974 230.288,51.5974 236.5,47.5 Z"/></g>
<g><path style="opacity:1" fill="#15cd1b" d="M 235.5,49.5 C 242,48.4987 244.5,51.1653 243,57.5C 240.036,61.2963 237.036,61.2963 234,57.5C 233.109,54.5024 233.609,51.8357 235.5,49.5 Z"/></g>
<g><path style="opacity:0.08" fill="#50a489" d="M 72.5,44.5 C 72.4052,47.7153 73.4052,50.5486 75.5,53C 74.2927,54.3002 73.6261,55.8002 73.5,57.5C 75.7857,57.595 77.7857,58.2616 79.5,59.5C 79.7218,62.0764 81.0551,62.9098 83.5,62C 82.6195,61.2917 81.9528,60.4584 81.5,59.5C 83.0174,59.5106 84.1841,60.1772 85,61.5C 86.7997,64.963 87.9664,68.6297 88.5,72.5C 88.1852,74.483 87.1852,75.8163 85.5,76.5C 85.189,77.4778 84.5223,78.1445 83.5,78.5C 80.9159,77.6072 78.2492,77.2739 75.5,77.5C 75.5,75.5 75.5,73.5 75.5,71.5C 74.5,71.5 73.5,71.5 72.5,71.5C 71.962,73.1172 71.6287,74.7839 71.5,76.5C 69.6096,76.7035 68.1096,76.0368 67,74.5C 67.8185,70.8312 67.6519,67.1645 66.5,63.5C 64.0411,63.31 62.3745,64.31 61.5,66.5C 61.6495,67.552 61.4828,68.552 61,69.5C 59.8372,67.7148 59.1705,65.7148 59,63.5C 57.6439,62.6198 56.1439,62.2865 54.5,62.5C 54.2739,65.2492 54.6072,67.9159 55.5,70.5C 54.3112,71.4287 52.9778,71.762 51.5,71.5C 54.1402,67.5732 54.1402,63.5732 51.5,59.5C 53.8333,56.8333 56.1667,56.8333 58.5,59.5C 60.5994,57.4798 62.9327,57.1465 65.5,58.5C 64.4937,59.3957 64.4937,60.0623 65.5,60.5C 66.7003,59.4688 68.0337,58.6355 69.5,58C 66.4448,56.8176 63.4448,55.4843 60.5,54C 59.0705,52.1197 59.4038,50.6197 61.5,49.5C 62.7678,50.4279 64.1011,50.5946 65.5,50C 67.5008,47.6755 69.8342,45.8421 72.5,44.5 Z M 79.5,59.5 C 80.1667,59.5 80.8333,59.5 81.5,59.5C 81.9528,60.4584 82.6195,61.2917 83.5,62C 81.0551,62.9098 79.7218,62.0764 79.5,59.5 Z M 68.5,52.5 C 70.1368,53.2178 71.8034,53.3845 73.5,53C 71.8516,51.3227 70.1849,51.156 68.5,52.5 Z M 72.5,71.5 C 73.5878,67.9098 75.9212,65.4098 79.5,64C 77.8008,63.0419 75.9674,62.5419 74,62.5C 67.027,62.8743 66.1936,64.8743 71.5,68.5C 67.233,70.2971 66.733,72.6305 70,75.5C 70.2004,73.6803 71.0337,72.347 72.5,71.5 Z M 85.5,76.5 C 86.9861,72.7256 86.8195,69.059 85,65.5C 79.2977,66.8887 76.4643,70.5554 76.5,76.5C 79.5,76.5 82.5,76.5 85.5,76.5 Z"/></g>
<g><path style="opacity:0.902" fill="#3fac60" d="M 89.5,59.5 C 90.2223,60.5511 91.2223,61.2178 92.5,61.5C 92.1788,63.0481 91.1788,63.7148 89.5,63.5C 89.5,62.1667 89.5,60.8333 89.5,59.5 Z"/></g>
<g><path style="opacity:0.749" fill="#42aa6d" d="M 108.5,58.5 C 108.245,60.9674 107.245,62.9674 105.5,64.5C 105.461,61.911 106.461,59.911 108.5,58.5 Z"/></g>
<g><path style="opacity:0.11" fill="#3d9e77" d="M 257.5,60.5 C 257.573,62.0269 256.906,63.0269 255.5,63.5C 255.427,61.9731 256.094,60.9731 257.5,60.5 Z"/></g>
<g><path style="opacity:0.129" fill="#419a7f" d="M 255.5,63.5 C 255.573,65.0269 254.906,66.0269 253.5,66.5C 253.427,64.9731 254.094,63.9731 255.5,63.5 Z"/></g>
<g><path style="opacity:0.031" fill="#43a17f" d="M 225.5,74.5 C 225.993,72.1944 226.326,69.861 226.5,67.5C 223.635,67.0548 221.135,67.7215 219,69.5C 215.392,77.7128 211.558,85.7128 207.5,93.5C 210.548,84.2374 214.548,75.4041 219.5,67C 228.448,64.7537 230.448,67.2537 225.5,74.5 Z"/></g>
<g><path style="opacity:0.023" fill="#39967b" d="M 259.5,57.5 C 260.919,56.5489 262.585,56.2155 264.5,56.5C 264.5,59.8333 264.5,63.1667 264.5,66.5C 270.176,66.3339 275.843,66.5006 281.5,67C 284.124,69.623 284.124,72.123 281.5,74.5C 281.756,72.2075 281.423,70.0408 280.5,68C 274.843,67.5006 269.176,67.3339 263.5,67.5C 263.5,64.1667 263.5,60.8333 263.5,57.5C 262.167,57.5 260.833,57.5 259.5,57.5 Z"/></g>
<g><path style="opacity:0.306" fill="#3da270" d="M 253.5,66.5 C 253.027,67.9063 252.027,68.573 250.5,68.5C 250.973,67.0937 251.973,66.427 253.5,66.5 Z"/></g>
<g><path style="opacity:0.024" fill="#4ca284" d="M 407.5,113.5 C 410.204,111.727 413.037,110.06 416,108.5C 417.52,109.697 418.687,111.197 419.5,113C 422.482,113.498 425.482,113.665 428.5,113.5C 428.5,111.833 428.5,110.167 428.5,108.5C 425.27,108.439 423.437,106.772 423,103.5C 429.149,71.8564 416.983,60.8564 386.5,70.5C 385.114,72.9542 385.614,74.9542 388,76.5C 395.667,73.3833 403.5,72.8833 411.5,75C 413.333,75.5 414.5,76.6667 415,78.5C 415.497,81.146 415.664,83.8127 415.5,86.5C 406.759,86.3271 398.093,86.9937 389.5,88.5C 391.877,87.1127 394.543,86.2794 397.5,86C 403.171,85.4693 408.838,84.9693 414.5,84.5C 414.775,80.7905 413.442,77.9572 410.5,76C 402.37,74.7688 394.537,75.6021 387,78.5C 385.565,76.6264 384.398,74.6264 383.5,72.5C 383.59,70.5749 384.59,69.4083 386.5,69C 396.095,65.2284 405.762,64.895 415.5,68C 420.234,70.4039 423.067,74.2372 424,79.5C 424.333,88.1667 424.667,96.8333 425,105.5C 432.547,109.822 432.214,113.156 424,115.5C 420.135,115.488 417.302,113.821 415.5,110.5C 413.021,112.076 410.354,113.076 407.5,113.5 Z"/></g>
<g><path style="opacity:1" fill="#19cc20" d="M 225.5,74.5 C 225.672,75.4916 225.338,76.1583 224.5,76.5C 222.043,79.7512 220.376,83.4179 219.5,87.5C 216.71,91.4156 214.71,95.749 213.5,100.5C 213.672,101.492 213.338,102.158 212.5,102.5C 210.375,105.088 209.042,108.088 208.5,111.5C 205.154,113.324 201.487,113.99 197.5,113.5C 191.179,98.8548 184.846,84.1881 178.5,69.5C 181.537,68.2588 184.537,68.2588 187.5,69.5C 187.182,72.4815 188.182,74.8148 190.5,76.5C 190.402,78.5529 191.069,80.2196 192.5,81.5C 193.042,84.9122 194.375,87.9122 196.5,90.5C 196.402,92.5529 197.069,94.2196 198.5,95.5C 198.182,98.4815 199.182,100.815 201.5,102.5C 201.281,103.675 201.614,104.675 202.5,105.5C 204.72,101.727 206.386,97.7275 207.5,93.5C 211.558,85.7128 215.392,77.7128 219,69.5C 221.135,67.7215 223.635,67.0548 226.5,67.5C 226.326,69.861 225.993,72.1944 225.5,74.5 Z"/></g>
<g><path style="opacity:0.027" fill="#459f82" d="M 325.5,69.5 C 315.088,66.6149 304.755,66.9482 294.5,70.5C 293.769,72.4012 293.769,74.4012 294.5,76.5C 300.088,75.1795 305.755,74.1795 311.5,73.5C 314.438,73.5676 317.105,74.2342 319.5,75.5C 311.716,75.0749 304.05,75.7416 296.5,77.5C 295.006,77.2908 293.839,76.6241 293,75.5C 292.192,73.4213 292.359,71.4213 293.5,69.5C 302.611,65.8876 311.944,65.0543 321.5,67C 323.066,67.6082 324.4,68.4415 325.5,69.5 Z"/></g>
<g><path style="opacity:1" fill="#1bcd21" d="M 325.5,69.5 C 328.33,71.8426 330.163,74.8426 331,78.5C 331.333,87.5 331.667,96.5 332,105.5C 332.383,106.056 332.883,106.389 333.5,106.5C 334.514,107.674 335.847,108.34 337.5,108.5C 337.747,110.858 337.081,112.858 335.5,114.5C 332.215,114.79 329.215,114.123 326.5,112.5C 325.662,112.158 325.328,111.492 325.5,110.5C 324.74,108.015 323.74,108.015 322.5,110.5C 320.181,110.992 318.181,111.992 316.5,113.5C 309.308,115.261 302.308,114.761 295.5,112C 290.848,107.464 289.348,101.964 291,95.5C 291.564,93.1133 292.73,91.1133 294.5,89.5C 304.059,87.4529 313.726,86.1196 323.5,85.5C 323.663,83.1432 323.497,80.8098 323,78.5C 322.578,76.5743 321.411,75.5743 319.5,75.5C 317.105,74.2342 314.438,73.5676 311.5,73.5C 305.755,74.1795 300.088,75.1795 294.5,76.5C 293.769,74.4012 293.769,72.4012 294.5,70.5C 304.755,66.9482 315.088,66.6149 325.5,69.5 Z M 322.5,92.5 C 322.665,95.5184 322.498,98.5184 322,101.5C 319.985,102.697 318.151,104.03 316.5,105.5C 311.144,106.704 305.811,106.704 300.5,105.5C 300.5,104.833 300.167,104.5 299.5,104.5C 299.223,101.552 299.556,98.7191 300.5,96C 307.706,94.1467 315.04,92.9801 322.5,92.5 Z"/></g>
<g><path style="opacity:1" fill="#19cd1e" d="M 407.5,113.5 C 400.63,115.312 393.963,114.812 387.5,112C 381.209,106.421 380.042,99.9208 384,92.5C 385.5,90.5313 387.333,89.198 389.5,88.5C 398.093,86.9937 406.759,86.3271 415.5,86.5C 415.664,83.8127 415.497,81.146 415,78.5C 414.5,76.6667 413.333,75.5 411.5,75C 403.5,72.8833 395.667,73.3833 388,76.5C 385.614,74.9542 385.114,72.9542 386.5,70.5C 416.983,60.8564 429.149,71.8564 423,103.5C 423.437,106.772 425.27,108.439 428.5,108.5C 428.5,110.167 428.5,111.833 428.5,113.5C 425.482,113.665 422.482,113.498 419.5,113C 418.687,111.197 417.52,109.697 416,108.5C 413.037,110.06 410.204,111.727 407.5,113.5 Z M 413.5,102.5 C 411.973,102.427 410.973,103.094 410.5,104.5C 409.508,104.328 408.842,104.662 408.5,105.5C 403.528,106.422 398.528,106.588 393.5,106C 389.736,102.611 389.569,99.1106 393,95.5C 399.339,94.2599 405.672,93.2599 412,92.5C 414.829,95.3758 415.329,98.7091 413.5,102.5 Z"/></g>
<g><path style="opacity:0.126" fill="#419b80" d="M 234.5,66.5 C 237.685,66.0196 240.519,66.6863 243,68.5C 243.824,83.7412 243.657,98.9078 242.5,114C 239.571,114.777 236.737,114.61 234,113.5C 233.183,97.7591 233.35,82.0924 234.5,66.5 Z"/></g>
<g><path style="opacity:1" fill="#15cc1e" d="M 235.5,67.5 C 238.044,67.1043 240.211,67.771 242,69.5C 242.667,83.5 242.667,97.5 242,111.5C 239.975,113.725 237.642,114.059 235,112.5C 234.184,97.4255 234.351,82.4255 235.5,67.5 Z"/></g>
<g><path style="opacity:0.927" fill="#a6d4c5" d="M 121.5,70.5 C 126.33,70.6225 130.663,72.1225 134.5,75C 133.207,75.49 131.873,75.6567 130.5,75.5C 127.877,73.7345 124.877,73.0679 121.5,73.5C 121.5,72.5 121.5,71.5 121.5,70.5 Z"/></g>
<g><path style="opacity:0.176" fill="#459b7e" d="M 120.5,50.5 C 125.083,55.9494 129.916,61.2827 135,66.5C 135.795,69.3832 134.629,70.8832 131.5,71C 134.394,71.8686 135.561,73.7019 135,76.5C 133.992,76.9817 132.825,77.1484 131.5,77C 132.571,77.8518 133.571,78.6851 134.5,79.5C 126.543,77.9043 118.71,78.2377 111,80.5C 110.837,78.6133 111.671,77.1133 113.5,76C 115.909,74.2932 118.575,73.4598 121.5,73.5C 124.877,73.0679 127.877,73.7345 130.5,75.5C 131.873,75.6567 133.207,75.49 134.5,75C 130.663,72.1225 126.33,70.6225 121.5,70.5C 119.451,70.2942 119.117,69.4609 120.5,68C 124.871,67.3708 129.204,67.5375 133.5,68.5C 133.703,66.6096 133.037,65.1096 131.5,64C 127.167,63.3333 122.833,63.3333 118.5,64C 116.7,65.8119 115.033,67.6452 113.5,69.5C 113.44,70.0431 113.107,70.3764 112.5,70.5C 108.75,64.2535 110.417,60.2535 117.5,58.5C 116.092,57.7568 114.759,56.9234 113.5,56C 113.728,55.6012 114.062,55.4346 114.5,55.5C 116.334,56.494 118.001,56.494 119.5,55.5C 120.038,53.8828 120.371,52.2161 120.5,50.5 Z M 113.5,69.5 C 114.051,66.7332 115.384,64.3999 117.5,62.5C 117.167,61.5 116.5,60.8333 115.5,60.5C 111.401,62.9572 110.734,65.9572 113.5,69.5 Z M 121.5,60.5 C 122.575,61.5624 123.575,61.5624 124.5,60.5C 123.386,59.2241 122.386,59.2241 121.5,60.5 Z M 130.5,75.5 C 124.933,73.767 119.6,74.267 114.5,77C 119.972,76.9781 125.305,76.4781 130.5,75.5 Z"/></g>
<g><path style="opacity:0.063" fill="#3c9878" d="M 60.5,76.5 C 57.9039,75.7347 55.2372,75.4013 52.5,75.5C 55.451,72.8049 58.1177,73.1382 60.5,76.5 Z"/></g>
<g><path style="opacity:0.082" fill="#44a579" d="M 187.5,69.5 C 189.293,71.4261 190.293,73.7594 190.5,76.5C 188.182,74.8148 187.182,72.4815 187.5,69.5 Z"/></g>
<g><path style="opacity:0.015" fill="#379578" d="M 248.5,73.5 C 250.764,74.2186 253.097,74.552 255.5,74.5C 255.291,85.1936 255.625,95.8602 256.5,106.5C 255.732,105.737 255.232,104.737 255,103.5C 254.5,94.1726 254.334,84.8393 254.5,75.5C 251.99,75.9465 249.99,75.2798 248.5,73.5 Z"/></g>
<g><path style="opacity:0.027" fill="#399479" d="M 281.5,74.5 C 276.025,75.4889 270.358,75.8222 264.5,75.5C 264.5,84.1667 264.5,92.8333 264.5,101.5C 263.507,92.6822 263.173,83.6822 263.5,74.5C 269.5,74.5 275.5,74.5 281.5,74.5 Z"/></g>
<g><path style="opacity:0.196" fill="#47987e" d="M 101.5,63.5 C 101.244,65.9372 100.577,68.2706 99.5,70.5C 100.689,71.4287 102.022,71.762 103.5,71.5C 103.415,73.9288 102.415,75.9288 100.5,77.5C 100.667,77.8333 100.833,78.1667 101,78.5C 102,77.5 103,76.5 104,75.5C 104.177,71.6437 104.677,67.977 105.5,64.5C 105.666,68.5138 105.499,72.5138 105,76.5C 103.587,78.4136 101.753,79.7469 99.5,80.5C 98.6911,79.3189 98.6911,77.9856 99.5,76.5C 98.9628,75.2588 98.2961,74.0921 97.5,73C 98.3711,69.5286 99.7045,66.3619 101.5,63.5 Z"/></g>
<g><path style="opacity:0.024" fill="#44a27d" d="M 190.5,76.5 C 191.931,77.7804 192.598,79.4471 192.5,81.5C 191.069,80.2196 190.402,78.5529 190.5,76.5 Z"/></g>
<g><path style="opacity:0.03" fill="#3c967b" d="M 325.5,69.5 C 329.257,70.7671 331.424,73.4338 332,77.5C 332.217,87.2129 332.717,96.8796 333.5,106.5C 332.883,106.389 332.383,106.056 332,105.5C 331.667,96.5 331.333,87.5 331,78.5C 330.163,74.8426 328.33,71.8426 325.5,69.5 Z"/></g>
<g><path style="opacity:0.008" fill="#3c967b" d="M 135.5,80.5 C 136.833,80.5 137.5,81.1667 137.5,82.5C 136.5,82.1667 135.833,81.5 135.5,80.5 Z"/></g>
<g><path style="opacity:0.796" fill="#a3d8c8" d="M 60.5,79.5 C 60.3284,80.4916 60.6618,81.1583 61.5,81.5C 59.0339,84.0306 56.0339,84.8639 52.5,84C 55.6485,83.2616 58.3152,81.7616 60.5,79.5 Z"/></g>
<g><path style="opacity:0.02" fill="#419e7b" d="M 224.5,76.5 C 223.624,80.5821 221.957,84.2488 219.5,87.5C 220.376,83.4179 222.043,79.7512 224.5,76.5 Z"/></g>
<g><path style="opacity:0.01" fill="#439b7f" d="M 319.5,75.5 C 321.411,75.5743 322.578,76.5743 323,78.5C 323.497,80.8098 323.663,83.1432 323.5,85.5C 313.726,86.1196 304.059,87.4529 294.5,89.5C 296.277,88.3995 298.277,87.5662 300.5,87C 307.808,85.8963 315.142,85.063 322.5,84.5C 322.871,80.9966 321.871,77.9966 319.5,75.5 Z"/></g>
<g><path style="opacity:0.038" fill="#4aa185" d="M 46.5,76.5 C 46.8212,78.0481 47.8212,78.7148 49.5,78.5C 47.3134,81.526 45.3134,84.6926 43.5,88C 43.6135,89.2798 44.2801,90.1131 45.5,90.5C 47.8333,89 50.1667,87.5 52.5,86C 49.7902,84.5402 49.1235,82.5402 50.5,80C 54.8771,82.5598 58.2104,81.3931 60.5,76.5C 61.625,77.3478 61.625,78.3478 60.5,79.5C 58.3152,81.7616 55.6485,83.2616 52.5,84C 56.0339,84.8639 59.0339,84.0306 61.5,81.5C 65.1817,81.3347 68.8484,81.5014 72.5,82C 74.9412,82.036 76.9412,82.8693 78.5,84.5C 78.0233,85.4776 77.3567,86.3109 76.5,87C 71.3817,88.9761 66.215,90.8095 61,92.5C 59.9701,92.1639 59.4701,91.4972 59.5,90.5C 60.3635,91.463 61.0302,91.463 61.5,90.5C 59.0428,88.6676 59.0428,87.0009 61.5,85.5C 64.011,86.7813 66.6776,87.4479 69.5,87.5C 72.4725,87.844 74.8058,86.844 76.5,84.5C 68.71,81.3905 61.3766,82.2238 54.5,87C 55.4158,87.2784 56.0825,87.7784 56.5,88.5C 55.8333,88.5 55.1667,88.5 54.5,88.5C 50.6542,90.1191 46.6542,91.6191 42.5,93C 44.0231,94.7884 45.6898,94.9551 47.5,93.5C 48.8069,94.8016 48.8069,96.135 47.5,97.5C 48.5769,98.7051 49.9102,99.3718 51.5,99.5C 46.1592,101.194 45.3259,104.194 49,108.5C 52.4239,106.004 55.5905,106.004 58.5,108.5C 57.1825,108.179 55.8492,107.846 54.5,107.5C 52.6746,108.651 50.6746,109.318 48.5,109.5C 48.5,110.5 48.5,111.5 48.5,112.5C 51.1194,112.232 53.6194,112.565 56,113.5C 56.7672,117.999 57.2672,122.332 57.5,126.5C 52.1649,124.323 49.3316,120.323 49,114.5C 42.7679,109.651 40.9346,103.651 43.5,96.5C 40.2245,93.5512 39.8912,90.3846 42.5,87C 41.4464,85.6124 41.2797,84.1124 42,82.5C 43.7641,80.6107 45.2641,78.6107 46.5,76.5 Z M 59.5,90.5 C 58.5,89.8333 57.5,89.1667 56.5,88.5C 56.0825,87.7784 55.4158,87.2784 54.5,87C 61.3766,82.2238 68.71,81.3905 76.5,84.5C 74.8058,86.844 72.4725,87.844 69.5,87.5C 66.6776,87.4479 64.011,86.7813 61.5,85.5C 59.0428,87.0009 59.0428,88.6676 61.5,90.5C 61.0302,91.463 60.3635,91.463 59.5,90.5 Z"/></g>
<g><path style="opacity:0.016" fill="#42a07f" d="M 192.5,81.5 C 194.625,84.0878 195.958,87.0878 196.5,90.5C 194.375,87.9122 193.042,84.9122 192.5,81.5 Z"/></g>
<g><path style="opacity:0.031" fill="#3e9975" d="M 80.5,94.5 C 82.4637,92.8726 83.797,90.8726 84.5,88.5C 82.7839,88.6287 81.1172,88.962 79.5,89.5C 80.911,87.461 82.911,86.461 85.5,86.5C 86.658,91.1093 84.9914,93.7759 80.5,94.5 Z"/></g>
<g><path style="opacity:0.047" fill="#439c80" d="M 137.5,82.5 C 140.825,84.8035 141.158,87.4702 138.5,90.5C 140.03,92.2262 141.03,94.2262 141.5,96.5C 141.547,98.0004 140.881,99.0004 139.5,99.5C 135.067,95.5979 133.067,96.5979 133.5,102.5C 131.186,101.821 130.853,100.488 132.5,98.5C 130.604,97.5344 128.604,97.2011 126.5,97.5C 126.663,95.1432 126.497,92.8098 126,90.5C 122.719,85.172 124.219,83.672 130.5,86C 132.908,89.2084 132.908,92.3751 130.5,95.5C 133.118,95.5434 135.785,95.8767 138.5,96.5C 138.833,96 139.167,95.5 139.5,95C 137.413,92.7548 136.079,90.0881 135.5,87C 136.707,85.6998 137.374,84.1998 137.5,82.5 Z M 128.5,94.5 C 129.117,94.3893 129.617,94.056 130,93.5C 130.667,91.5 130.667,89.5 130,87.5C 128.612,86.4464 127.112,86.2797 125.5,87C 126.991,89.3078 127.991,91.8078 128.5,94.5 Z"/></g>
<g><path style="opacity:0.714" fill="#88c4b1" d="M 54.5,88.5 C 54.5,89.8333 54.5,91.1667 54.5,92.5C 52.0971,92.448 49.7638,92.7814 47.5,93.5C 45.6898,94.9551 44.0231,94.7884 42.5,93C 46.6542,91.6191 50.6542,90.1191 54.5,88.5 Z"/></g>
<g><path style="opacity:0.137" fill="#56a98b" d="M 365.5,67.5 C 365.5,67.8333 365.5,68.1667 365.5,68.5C 365.5,83.1667 365.5,97.8333 365.5,112.5C 367.5,112.5 369.5,112.5 371.5,112.5C 372.496,98.0095 372.829,83.3428 372.5,68.5C 373.826,83.3386 373.826,98.3386 372.5,113.5C 369.833,114.833 367.167,114.833 364.5,113.5C 364.167,105.833 363.833,98.1667 363.5,90.5C 363.502,82.4697 364.169,74.803 365.5,67.5 Z"/></g>
<g><path style="opacity:1" fill="#01cd06" d="M 365.5,68.5 C 367.5,68.5 369.5,68.5 371.5,68.5C 371.5,83.1667 371.5,97.8333 371.5,112.5C 369.5,112.5 367.5,112.5 365.5,112.5C 365.5,97.8333 365.5,83.1667 365.5,68.5 Z"/></g>
<g><path style="opacity:0.027" fill="#3f9a75" d="M 112.5,89.5 C 111.486,90.6737 110.153,91.3404 108.5,91.5C 109.287,89.8958 110.62,89.2291 112.5,89.5 Z"/></g>
<g><path style="opacity:0.192" fill="#449b79" d="M 115.5,89.5 C 117.027,89.427 118.027,90.0937 118.5,91.5C 116.973,91.573 115.973,90.9063 115.5,89.5 Z"/></g>
<g><path style="opacity:0.114" fill="#43a17e" d="M 187.5,69.5 C 184.537,68.2588 181.537,68.2588 178.5,69.5C 184.846,84.1881 191.179,98.8548 197.5,113.5C 195.864,112.251 194.697,110.584 194,108.5C 189.055,96.3333 183.722,84.3333 178,72.5C 177.257,70.5594 177.424,68.7261 178.5,67C 180.833,66.3333 183.167,66.3333 185.5,67C 186.756,67.4169 187.423,68.2502 187.5,69.5 Z"/></g>
<g><path style="opacity:0.014" fill="#43a870" d="M 323.5,91.5 C 324.641,94.6399 324.808,97.9733 324,101.5C 322.058,103.955 319.558,105.288 316.5,105.5C 318.151,104.03 319.985,102.697 322,101.5C 322.498,98.5184 322.665,95.5184 322.5,92.5C 323.167,92.5 323.5,92.1667 323.5,91.5 Z"/></g>
<g><path style="opacity:0.196" fill="#48a181" d="M 389.5,88.5 C 387.333,89.198 385.5,90.5313 384,92.5C 380.042,99.9208 381.209,106.421 387.5,112C 393.963,114.812 400.63,115.312 407.5,113.5C 400.56,116.242 393.56,116.075 386.5,113C 380.402,107.296 378.902,100.462 382,92.5C 383.715,89.6026 386.215,88.2693 389.5,88.5 Z"/></g>
<g><path style="opacity:0.078" fill="#419c7f" d="M 196.5,90.5 C 197.931,91.7804 198.598,93.4471 198.5,95.5C 197.069,94.2196 196.402,92.5529 196.5,90.5 Z"/></g>
<g><path style="opacity:0.437" fill="#80c5af" d="M 372.5,68.5 C 372.829,83.3428 372.496,98.0095 371.5,112.5C 371.5,97.8333 371.5,83.1667 371.5,68.5C 369.5,68.5 367.5,68.5 365.5,68.5C 365.5,68.1667 365.5,67.8333 365.5,67.5C 366.274,66.8529 367.274,66.5195 368.5,66.5C 370.355,66.3402 371.688,67.0069 372.5,68.5 Z"/></g>
<g><path style="opacity:0.035" fill="#3d9579" d="M 76.5,91.5 C 73.8333,93.1667 71.1667,94.8333 68.5,96.5C 67.2438,96.5386 66.2438,96.0386 65.5,95C 69.1537,93.7262 72.8204,92.5596 76.5,91.5 Z"/></g>
<g><path style="opacity:0.051" fill="#3c9576" d="M 120.5,93.5 C 121.404,94.209 121.737,95.209 121.5,96.5C 120.5,96.5 119.5,96.5 118.5,96.5C 119.551,95.7777 120.218,94.7777 120.5,93.5 Z"/></g>
<g><path style="opacity:0.031" fill="#3f9e7a" d="M 219.5,87.5 C 218.29,92.251 216.29,96.5844 213.5,100.5C 214.71,95.749 216.71,91.4156 219.5,87.5 Z"/></g>
<g><path style="opacity:0.024" fill="#3d9c74" d="M 106.5,93.5 C 105.167,95.5 103.5,97.1667 101.5,98.5C 102.167,95.8333 103.833,94.1667 106.5,93.5 Z"/></g>
<g><path style="opacity:0.014" fill="#419b7e" d="M 323.5,91.5 C 323.5,92.1667 323.167,92.5 322.5,92.5C 315.04,92.9801 307.706,94.1467 300.5,96C 299.556,98.7191 299.223,101.552 299.5,104.5C 297.236,100.953 297.57,97.4532 300.5,94C 308.137,92.8366 315.804,92.0033 323.5,91.5 Z"/></g>
<g><path style="opacity:0.573" fill="#57a88f" d="M 67.5,104.5 C 65.7857,105.738 63.7857,106.405 61.5,106.5C 61.5172,108.565 61.8505,110.565 62.5,112.5C 60.8333,111.5 59.5,110.167 58.5,108.5C 59.7757,105.815 59.4424,103.148 57.5,100.5C 58.0402,99.2519 58.7069,98.0852 59.5,97C 57.0709,96.2967 54.7375,96.4634 52.5,97.5C 54.9878,95.6122 57.9878,94.9455 61.5,95.5C 62.9205,98.2613 63.5871,101.261 63.5,104.5C 64.8333,104.5 66.1667,104.5 67.5,104.5 Z"/></g>
<g><path style="opacity:0.076" fill="#3e9974" d="M 101.5,98.5 C 100.859,99.4822 100.193,100.482 99.5,101.5C 101.901,102.358 103.901,103.691 105.5,105.5C 102.95,104.642 100.45,103.642 98,102.5C 97.8319,100.159 98.9986,98.8256 101.5,98.5 Z"/></g>
<g><path style="opacity:0.047" fill="#42a178" d="M 198.5,95.5 C 200.293,97.4261 201.293,99.7594 201.5,102.5C 199.182,100.815 198.182,98.4815 198.5,95.5 Z"/></g>
<g><path style="opacity:0.059" fill="#419d7c" d="M 207.5,93.5 C 206.386,97.7275 204.72,101.727 202.5,105.5C 201.614,104.675 201.281,103.675 201.5,102.5C 203.721,99.7472 205.721,96.7472 207.5,93.5 Z"/></g>
<g><path style="opacity:0.137" fill="#4aa387" d="M 124.5,106.5 C 123.198,105.193 121.865,105.193 120.5,106.5C 118.072,104.295 115.405,102.628 112.5,101.5C 115.789,100.452 119.122,99.9525 122.5,100C 123.669,102.007 124.335,104.173 124.5,106.5 Z M 121.5,102.5 C 121.483,100.972 120.816,100.472 119.5,101C 120.044,101.717 120.711,102.217 121.5,102.5 Z"/></g>
<g><path style="opacity:0.455" fill="#56ab85" d="M 413.5,102.5 C 413.027,103.906 412.027,104.573 410.5,104.5C 410.973,103.094 411.973,102.427 413.5,102.5 Z"/></g>
<g><path style="opacity:0.418" fill="#499d7e" d="M 80.5,94.5 C 78.8729,96.6298 77.0396,98.6298 75,100.5C 74.5545,107.248 74.8879,113.914 76,120.5C 74.3796,122.632 72.5463,122.965 70.5,121.5C 73.2327,121.804 74.8994,120.637 75.5,118C 74.2454,113.727 73.2454,109.394 72.5,105C 73.1182,99.8882 75.7849,96.3882 80.5,94.5 Z"/></g>
<g><path style="opacity:0.796" fill="#40ae65" d="M 264.5,101.5 C 265.674,102.514 266.34,103.847 266.5,105.5C 264.824,104.817 264.157,103.483 264.5,101.5 Z"/></g>
<g><path style="opacity:0.012" fill="#49a181" d="M 413.5,102.5 C 415.329,98.7091 414.829,95.3758 412,92.5C 405.672,93.2599 399.339,94.2599 393,95.5C 389.569,99.1106 389.736,102.611 393.5,106C 398.528,106.588 403.528,106.422 408.5,105.5C 407.737,106.268 406.737,106.768 405.5,107C 401.167,107.667 396.833,107.667 392.5,107C 388.878,102.998 388.544,98.6647 391.5,94C 399.363,91.9855 407.363,91.1522 415.5,91.5C 415.665,94.8499 415.498,98.1832 415,101.5C 414.617,102.056 414.117,102.389 413.5,102.5 Z"/></g>
<g><path style="opacity:0.012" fill="#409c77" d="M 105.5,105.5 C 108.167,106.167 109.833,107.833 110.5,110.5C 108.5,109.167 106.833,107.5 105.5,105.5 Z"/></g>
<g><path style="opacity:0.031" fill="#409f75" d="M 279.5,105.5 C 279.389,106.117 279.056,106.617 278.5,107C 274.973,107.808 271.64,107.641 268.5,106.5C 272.215,106.577 275.881,106.244 279.5,105.5 Z"/></g>
<g><path style="opacity:0.038" fill="#3f997b" d="M 300.5,105.5 C 305.811,106.704 311.144,106.704 316.5,105.5C 313.814,106.991 310.814,107.657 307.5,107.5C 305.5,107.333 303.5,107.167 301.5,107C 300.944,106.617 300.611,106.117 300.5,105.5 Z"/></g>
<g><path style="opacity:0.433" fill="#68b199" d="M 130.5,106.5 C 129.89,107.391 129.557,108.391 129.5,109.5C 128.325,109.719 127.325,109.386 126.5,108.5C 127.098,107.205 127.598,105.872 128,104.5C 128.708,105.381 129.542,106.047 130.5,106.5 Z"/></g>
<g><path style="opacity:0.196" fill="#54a389" d="M 333.5,106.5 C 335.38,106.229 336.713,106.896 337.5,108.5C 335.847,108.34 334.514,107.674 333.5,106.5 Z"/></g>
<g><path style="opacity:0.016" fill="#3e9d78" d="M 212.5,102.5 C 211.958,105.912 210.625,108.912 208.5,111.5C 209.042,108.088 210.375,105.088 212.5,102.5 Z"/></g>
<g><path style="opacity:0.039" fill="#44997f" d="M 325.5,110.5 C 324.5,110.5 323.5,110.5 322.5,110.5C 323.74,108.015 324.74,108.015 325.5,110.5 Z"/></g>
<g><path style="opacity:0.02" fill="#3f9c76" d="M 110.5,110.5 C 112.404,110.738 113.738,111.738 114.5,113.5C 112.596,113.262 111.262,112.262 110.5,110.5 Z"/></g>
<g><path style="opacity:0.012" fill="#3a9c77" d="M 257.5,108.5 C 259.167,109.5 260.5,110.833 261.5,112.5C 259.167,112.167 257.833,110.833 257.5,108.5 Z"/></g>
<g><path style="opacity:0.176" fill="#43a67a" d="M 283.5,105.5 C 284.601,106.848 285.601,108.348 286.5,110C 285.922,111.417 284.922,112.25 283.5,112.5C 284.067,110.302 284.067,107.969 283.5,105.5 Z"/></g>
<g><path style="opacity:0.094" fill="#449d81" d="M 322.5,110.5 C 321.089,112.539 319.089,113.539 316.5,113.5C 318.181,111.992 320.181,110.992 322.5,110.5 Z"/></g>
<g><path style="opacity:0.012" fill="#3d9b7b" d="M 337.5,108.5 C 338.613,109.946 338.78,111.613 338,113.5C 337.329,114.252 336.496,114.586 335.5,114.5C 337.081,112.858 337.747,110.858 337.5,108.5 Z"/></g>
<g><path style="opacity:0.037" fill="#379577" d="M 208.5,111.5 C 208.586,112.496 208.252,113.329 207.5,114C 203.973,114.808 200.64,114.641 197.5,113.5C 201.487,113.99 205.154,113.324 208.5,111.5 Z"/></g>
<g><path style="opacity:0.373" fill="#42a86e" d="M 62.5,112.5 C 63.9063,112.973 64.573,113.973 64.5,115.5C 63.0937,115.027 62.427,114.027 62.5,112.5 Z"/></g>
<g><path style="opacity:0.043" fill="#3c9872" d="M 108.5,115.5 C 106.076,115.192 103.743,115.526 101.5,116.5C 103.419,115.989 105.085,116.656 106.5,118.5C 104.533,118.261 102.699,118.594 101,119.5C 100.018,118.241 99.6848,116.908 100,115.5C 102.937,114.183 105.77,114.183 108.5,115.5 Z"/></g>
<g><path style="opacity:0.012" fill="#349477" d="M 263.5,113.5 C 269.492,114.774 275.492,114.774 281.5,113.5C 278.644,115.006 275.477,115.672 272,115.5C 269.833,115.333 267.667,115.167 265.5,115C 264.584,114.722 263.918,114.222 263.5,113.5 Z"/></g>
<g><path style="opacity:0.018" fill="#409a7e" d="M 294.5,89.5 C 292.73,91.1133 291.564,93.1133 291,95.5C 289.348,101.964 290.848,107.464 295.5,112C 302.308,114.761 309.308,115.261 316.5,113.5C 315.737,114.268 314.737,114.768 313.5,115C 306.946,116.081 300.612,115.414 294.5,113C 288.434,106.665 287.267,99.4984 291,91.5C 291.816,90.1772 292.983,89.5106 294.5,89.5 Z"/></g>
<g><path style="opacity:0.018" fill="#3c9b79" d="M 326.5,112.5 C 329.215,114.123 332.215,114.79 335.5,114.5C 333.372,115.629 331.039,115.796 328.5,115C 327.619,114.292 326.953,113.458 326.5,112.5 Z"/></g>
<g><path style="opacity:0.039" fill="#4fa489" d="M 130.5,118.5 C 130.5,116.833 130.5,115.167 130.5,113.5C 131.287,111.896 132.62,111.229 134.5,111.5C 134.851,114.812 133.518,117.145 130.5,118.5 Z"/></g>
<g><path style="opacity:0.396" fill="#42aa6c" d="M 64.5,115.5 C 65.9063,115.973 66.573,116.973 66.5,118.5C 65.0937,118.027 64.427,117.027 64.5,115.5 Z"/></g>
<g><path style="opacity:0.08" fill="#4ca387" d="M 108.5,115.5 C 111.047,116.934 113.381,118.6 115.5,120.5C 116.038,122.117 116.371,123.784 116.5,125.5C 122.949,124.844 123.616,123.177 118.5,120.5C 121.167,120.5 123.833,120.5 126.5,120.5C 123.885,121.434 123.218,123.101 124.5,125.5C 123.812,126.855 122.812,127.855 121.5,128.5C 117.242,127.283 113.242,125.283 109.5,122.5C 110.239,122.631 110.906,122.464 111.5,122C 110.871,119.625 109.871,117.459 108.5,115.5 Z M 115.5,120.5 C 116.5,120.5 117.5,120.5 118.5,120.5C 123.616,123.177 122.949,124.844 116.5,125.5C 116.371,123.784 116.038,122.117 115.5,120.5 Z"/></g>
<g><path style="opacity:0.102" fill="#3e957b" d="M 108.5,127.5 C 106.797,126.34 106.131,127.007 106.5,129.5C 105.566,128.432 105.232,127.099 105.5,125.5C 107.179,125.285 108.179,125.952 108.5,127.5 Z"/></g>
<g><path style="opacity:0.069" fill="#49a285" d="M 108.5,127.5 C 109.833,128.5 111.167,129.5 112.5,130.5C 111.692,134.129 109.525,136.462 106,137.5C 105.235,137.43 104.735,137.097 104.5,136.5C 106.912,136.306 107.912,134.973 107.5,132.5C 108.473,132.013 109.473,131.513 110.5,131C 109.177,130.184 108.511,129.017 108.5,127.5 Z"/></g>
<g><path style="opacity:0.02" fill="#359c7c" d="M 101.5,130.5 C 102.404,131.209 102.737,132.209 102.5,133.5C 100.519,132.895 100.185,131.895 101.5,130.5 Z"/></g>
<g><path style="opacity:0.073" fill="#50a387" d="M 100.5,129.5 C 100.113,135.227 97.1135,138.893 91.5,140.5C 90.3279,140.081 89.3279,139.415 88.5,138.5C 81.7391,143.047 75.7391,142.214 70.5,136C 73.1047,135.974 74.2713,134.807 74,132.5C 71.2053,133.783 68.3719,133.783 65.5,132.5C 66.3128,131.186 67.3128,130.019 68.5,129C 67.944,128.617 67.6107,128.117 67.5,127.5C 70.5215,128.427 73.3549,129.761 76,131.5C 79.5538,131.039 82.7204,129.706 85.5,127.5C 85.8333,127.833 86.1667,128.167 86.5,128.5C 85.4756,130.946 83.8089,132.612 81.5,133.5C 80.5943,134.965 79.261,135.965 77.5,136.5C 76.6143,137.325 76.281,138.325 76.5,139.5C 79.9783,139.816 83.3117,139.316 86.5,138C 90.1304,134.238 92.2971,129.738 93,124.5C 93.5482,128.17 94.0482,131.837 94.5,135.5C 95.5,135.5 96.5,135.5 97.5,135.5C 97.9978,132.513 98.4978,129.513 99,126.5C 99.5133,127.527 100.013,128.527 100.5,129.5 Z M 91.5,134.5 C 91.0472,135.458 90.3805,136.292 89.5,137C 92.0211,137.329 92.6878,136.496 91.5,134.5 Z"/></g>
</svg>
